<mxfile host="app.diagrams.net" modified="2021-05-24T15:22:44.975Z" agent="5.0 (Windows NT 10.0; Win64; x64) AppleWebKit/537.36 (KHTML, like Gecko) Chrome/90.0.4430.212 Safari/537.36" etag="ng2Oe_kgLPy1C6MeUOpq" version="14.7.0" type="github">
  <diagram id="90IDWgGwv996NUTPNuem" name="Page-1">
    <mxGraphModel dx="1038" dy="561" grid="1" gridSize="10" guides="1" tooltips="1" connect="1" arrows="1" fold="1" page="1" pageScale="1" pageWidth="850" pageHeight="1100" math="0" shadow="0">
      <root>
        <mxCell id="0" />
        <mxCell id="1" parent="0" />
        <mxCell id="Drm-NwM3W-UP_SvnV5Tc-9" value="" style="rounded=0;whiteSpace=wrap;html=1;fontFamily=Noto Serif SC;fontSource=https%3A%2F%2Ffonts.googleapis.com%2Fcss%3Ffamily%3DNoto%2BSerif%2BSC;" parent="1" vertex="1">
          <mxGeometry x="120" y="140" width="640" height="330" as="geometry" />
        </mxCell>
        <mxCell id="WsCPyfnsRkTQpv4k7r7G-1" value="用户" style="shape=umlActor;verticalLabelPosition=bottom;verticalAlign=top;html=1;outlineConnect=0;fontFamily=Noto Serif SC;fontSource=https%3A%2F%2Ffonts.googleapis.com%2Fcss%3Ffamily%3DNoto%2BSerif%2BSC;" parent="1" vertex="1">
          <mxGeometry x="50" y="280" width="30" height="60" as="geometry" />
        </mxCell>
        <mxCell id="WsCPyfnsRkTQpv4k7r7G-6" value="以太坊智能合约查询" style="ellipse;whiteSpace=wrap;html=1;fontFamily=Noto Serif SC;fontSource=https%3A%2F%2Ffonts.googleapis.com%2Fcss%3Ffamily%3DNoto%2BSerif%2BSC;" parent="1" vertex="1">
          <mxGeometry x="340" y="230" width="120" height="40" as="geometry" />
        </mxCell>
        <mxCell id="WsCPyfnsRkTQpv4k7r7G-9" value="以太坊智能合约审计" style="ellipse;whiteSpace=wrap;html=1;fontFamily=Noto Serif SC;fontSource=https%3A%2F%2Ffonts.googleapis.com%2Fcss%3Ffamily%3DNoto%2BSerif%2BSC;" parent="1" vertex="1">
          <mxGeometry x="340" y="320" width="120" height="40" as="geometry" />
        </mxCell>
        <mxCell id="WsCPyfnsRkTQpv4k7r7G-14" value="&amp;lt;&amp;lt;包含&amp;gt;&amp;gt;" style="endArrow=open;endSize=12;dashed=1;html=1;entryX=0;entryY=0.625;entryDx=0;entryDy=0;entryPerimeter=0;exitX=1;exitY=0.5;exitDx=0;exitDy=0;fontFamily=Noto Serif SC;fontSource=https%3A%2F%2Ffonts.googleapis.com%2Fcss%3Ffamily%3DNoto%2BSerif%2BSC;" parent="1" source="WsCPyfnsRkTQpv4k7r7G-6" target="WsCPyfnsRkTQpv4k7r7G-15" edge="1">
          <mxGeometry width="160" relative="1" as="geometry">
            <mxPoint x="330" y="250" as="sourcePoint" />
            <mxPoint x="460" y="290" as="targetPoint" />
            <Array as="points" />
          </mxGeometry>
        </mxCell>
        <mxCell id="WsCPyfnsRkTQpv4k7r7G-15" value="智能合约基本信息查询" style="ellipse;whiteSpace=wrap;html=1;fontFamily=Noto Serif SC;fontSource=https%3A%2F%2Ffonts.googleapis.com%2Fcss%3Ffamily%3DNoto%2BSerif%2BSC;" parent="1" vertex="1">
          <mxGeometry x="560" y="190" width="130" height="40" as="geometry" />
        </mxCell>
        <mxCell id="WsCPyfnsRkTQpv4k7r7G-16" value="合约审计报告查询" style="ellipse;whiteSpace=wrap;html=1;fontFamily=Noto Serif SC;fontSource=https%3A%2F%2Ffonts.googleapis.com%2Fcss%3Ffamily%3DNoto%2BSerif%2BSC;" parent="1" vertex="1">
          <mxGeometry x="560" y="260" width="130" height="40" as="geometry" />
        </mxCell>
        <mxCell id="WsCPyfnsRkTQpv4k7r7G-17" value="通过地址审计" style="ellipse;whiteSpace=wrap;html=1;fontFamily=Noto Serif SC;fontSource=https%3A%2F%2Ffonts.googleapis.com%2Fcss%3Ffamily%3DNoto%2BSerif%2BSC;" parent="1" vertex="1">
          <mxGeometry x="560" y="320" width="130" height="40" as="geometry" />
        </mxCell>
        <mxCell id="WsCPyfnsRkTQpv4k7r7G-18" value="通过代码审计" style="ellipse;whiteSpace=wrap;html=1;fontFamily=Noto Serif SC;fontSource=https%3A%2F%2Ffonts.googleapis.com%2Fcss%3Ffamily%3DNoto%2BSerif%2BSC;" parent="1" vertex="1">
          <mxGeometry x="560" y="380" width="130" height="40" as="geometry" />
        </mxCell>
        <mxCell id="WsCPyfnsRkTQpv4k7r7G-19" value="&amp;lt;&amp;lt;包含&amp;gt;&amp;gt;" style="endArrow=open;endSize=12;dashed=1;html=1;exitX=1;exitY=0.5;exitDx=0;exitDy=0;entryX=0;entryY=0.5;entryDx=0;entryDy=0;fontFamily=Noto Serif SC;fontSource=https%3A%2F%2Ffonts.googleapis.com%2Fcss%3Ffamily%3DNoto%2BSerif%2BSC;" parent="1" source="WsCPyfnsRkTQpv4k7r7G-6" target="WsCPyfnsRkTQpv4k7r7G-16" edge="1">
          <mxGeometry width="160" relative="1" as="geometry">
            <mxPoint x="310" y="300" as="sourcePoint" />
            <mxPoint x="470" y="250" as="targetPoint" />
            <Array as="points" />
          </mxGeometry>
        </mxCell>
        <mxCell id="WsCPyfnsRkTQpv4k7r7G-22" value="&amp;lt;&amp;lt;包含&amp;gt;&amp;gt;" style="endArrow=open;endSize=12;dashed=1;html=1;entryX=0;entryY=0.5;entryDx=0;entryDy=0;exitX=1;exitY=0.5;exitDx=0;exitDy=0;fontFamily=Noto Serif SC;fontSource=https%3A%2F%2Ffonts.googleapis.com%2Fcss%3Ffamily%3DNoto%2BSerif%2BSC;" parent="1" source="WsCPyfnsRkTQpv4k7r7G-9" target="WsCPyfnsRkTQpv4k7r7G-17" edge="1">
          <mxGeometry width="160" relative="1" as="geometry">
            <mxPoint x="330" y="420" as="sourcePoint" />
            <mxPoint x="490.66765680514436" y="434.2815694937906" as="targetPoint" />
            <Array as="points" />
          </mxGeometry>
        </mxCell>
        <mxCell id="WsCPyfnsRkTQpv4k7r7G-23" value="&amp;lt;&amp;lt;包含&amp;gt;&amp;gt;" style="endArrow=open;endSize=12;dashed=1;html=1;entryX=0;entryY=0.5;entryDx=0;entryDy=0;exitX=1;exitY=0.5;exitDx=0;exitDy=0;fontFamily=Noto Serif SC;fontSource=https%3A%2F%2Ffonts.googleapis.com%2Fcss%3Ffamily%3DNoto%2BSerif%2BSC;" parent="1" source="WsCPyfnsRkTQpv4k7r7G-9" target="WsCPyfnsRkTQpv4k7r7G-18" edge="1">
          <mxGeometry width="160" relative="1" as="geometry">
            <mxPoint x="314.67" y="445.72" as="sourcePoint" />
            <mxPoint x="475.3376568051444" y="460.0015694937906" as="targetPoint" />
            <Array as="points" />
          </mxGeometry>
        </mxCell>
        <mxCell id="WsCPyfnsRkTQpv4k7r7G-25" value="&amp;lt;&amp;lt;包含&amp;gt;&amp;gt;" style="endArrow=open;endSize=12;dashed=1;html=1;entryX=0;entryY=0.5;entryDx=0;entryDy=0;exitX=1;exitY=0.5;exitDx=0;exitDy=0;fontFamily=Noto Serif SC;fontSource=https%3A%2F%2Ffonts.googleapis.com%2Fcss%3Ffamily%3DNoto%2BSerif%2BSC;" parent="1" target="WsCPyfnsRkTQpv4k7r7G-21" edge="1">
          <mxGeometry width="160" relative="1" as="geometry">
            <mxPoint x="460" y="440" as="sourcePoint" />
            <mxPoint x="430.66765680514436" y="574.2815694937906" as="targetPoint" />
            <Array as="points" />
          </mxGeometry>
        </mxCell>
        <mxCell id="6kvlaEkvdR_WCjKz4TJ5-5" value="" style="endArrow=classic;html=1;exitX=1;exitY=0.3333333333333333;exitDx=0;exitDy=0;exitPerimeter=0;entryX=0;entryY=0.5;entryDx=0;entryDy=0;fontFamily=Noto Serif SC;fontSource=https%3A%2F%2Ffonts.googleapis.com%2Fcss%3Ffamily%3DNoto%2BSerif%2BSC;" parent="1" source="WsCPyfnsRkTQpv4k7r7G-1" target="Drm-NwM3W-UP_SvnV5Tc-2" edge="1">
          <mxGeometry width="50" height="50" relative="1" as="geometry">
            <mxPoint x="100" y="370" as="sourcePoint" />
            <mxPoint x="150" y="310" as="targetPoint" />
          </mxGeometry>
        </mxCell>
        <mxCell id="6kvlaEkvdR_WCjKz4TJ5-14" value="&amp;lt;&amp;lt;包含&amp;gt;&amp;gt;" style="endArrow=open;endSize=12;dashed=1;html=1;entryX=0;entryY=0.5;entryDx=0;entryDy=0;exitX=1;exitY=0.5;exitDx=0;exitDy=0;fontFamily=Noto Serif SC;fontSource=https%3A%2F%2Ffonts.googleapis.com%2Fcss%3Ffamily%3DNoto%2BSerif%2BSC;" parent="1" target="WsCPyfnsRkTQpv4k7r7G-20" edge="1">
          <mxGeometry width="160" relative="1" as="geometry">
            <mxPoint x="460" y="440" as="sourcePoint" />
            <mxPoint x="506.60805922287824" y="511.7178643762703" as="targetPoint" />
            <Array as="points" />
          </mxGeometry>
        </mxCell>
        <mxCell id="6kvlaEkvdR_WCjKz4TJ5-35" value="以太坊智能合约分析用例图" style="text;html=1;strokeColor=none;fillColor=none;align=center;verticalAlign=middle;whiteSpace=wrap;rounded=0;fontFamily=Noto Serif SC;fontSource=https%3A%2F%2Ffonts.googleapis.com%2Fcss%3Ffamily%3DNoto%2BSerif%2BSC;" parent="1" vertex="1">
          <mxGeometry x="308" y="150" width="240" height="20" as="geometry" />
        </mxCell>
        <mxCell id="6kvlaEkvdR_WCjKz4TJ5-59" value="&amp;lt;&amp;lt;包含&amp;gt;&amp;gt;" style="endArrow=open;endSize=12;dashed=1;html=1;entryX=0;entryY=0.5;entryDx=0;entryDy=0;exitX=1;exitY=0.5;exitDx=0;exitDy=0;fontFamily=Noto Serif SC;fontSource=https%3A%2F%2Ffonts.googleapis.com%2Fcss%3Ffamily%3DNoto%2BSerif%2BSC;" parent="1" target="6kvlaEkvdR_WCjKz4TJ5-58" edge="1">
          <mxGeometry width="160" relative="1" as="geometry">
            <mxPoint x="460" y="530" as="sourcePoint" />
            <mxPoint x="489.9999999999877" y="630" as="targetPoint" />
            <Array as="points" />
          </mxGeometry>
        </mxCell>
        <mxCell id="Drm-NwM3W-UP_SvnV5Tc-2" value="以太坊智能合约分析" style="ellipse;whiteSpace=wrap;html=1;fontFamily=Noto Serif SC;fontSource=https%3A%2F%2Ffonts.googleapis.com%2Fcss%3Ffamily%3DNoto%2BSerif%2BSC;" parent="1" vertex="1">
          <mxGeometry x="160" y="280" width="120" height="40" as="geometry" />
        </mxCell>
        <mxCell id="Drm-NwM3W-UP_SvnV5Tc-5" value="&amp;lt;&amp;lt;包含&amp;gt;&amp;gt;" style="endArrow=open;endSize=12;dashed=1;html=1;entryX=0;entryY=0.5;entryDx=0;entryDy=0;exitX=1;exitY=0.5;exitDx=0;exitDy=0;fontFamily=Noto Serif SC;fontSource=https%3A%2F%2Ffonts.googleapis.com%2Fcss%3Ffamily%3DNoto%2BSerif%2BSC;" parent="1" source="Drm-NwM3W-UP_SvnV5Tc-2" target="WsCPyfnsRkTQpv4k7r7G-6" edge="1">
          <mxGeometry width="160" relative="1" as="geometry">
            <mxPoint x="459.99999999999454" y="260" as="sourcePoint" />
            <mxPoint x="560" y="235" as="targetPoint" />
            <Array as="points" />
          </mxGeometry>
        </mxCell>
        <mxCell id="Drm-NwM3W-UP_SvnV5Tc-6" value="&amp;lt;&amp;lt;包含&amp;gt;&amp;gt;" style="endArrow=open;endSize=12;dashed=1;html=1;entryX=0;entryY=0.5;entryDx=0;entryDy=0;exitX=1;exitY=0.5;exitDx=0;exitDy=0;fontFamily=Noto Serif SC;fontSource=https%3A%2F%2Ffonts.googleapis.com%2Fcss%3Ffamily%3DNoto%2BSerif%2BSC;" parent="1" source="Drm-NwM3W-UP_SvnV5Tc-2" target="WsCPyfnsRkTQpv4k7r7G-9" edge="1">
          <mxGeometry width="160" relative="1" as="geometry">
            <mxPoint x="290" y="309.9999999999999" as="sourcePoint" />
            <mxPoint x="340.00000000000523" y="260" as="targetPoint" />
            <Array as="points" />
          </mxGeometry>
        </mxCell>
      </root>
    </mxGraphModel>
  </diagram>
</mxfile>
